<svg width="1022" height="273" viewBox="0 0 1022 273" fill="none" xmlns="http://www.w3.org/2000/svg">
<path d="M208.31 207.118H27.6534C29.2298 208.173 31.2182 209.507 33.5482 211.076C39.7755 215.269 48.4432 221.144 58.2052 227.869C77.3238 241.041 100.665 257.495 118.091 270.978C130.274 258.202 153.623 241.781 174.013 228.49C184.506 221.65 194.262 215.609 201.395 211.278C204.116 209.626 206.456 208.223 208.31 207.118Z" fill="#FF4667" stroke="black" stroke-width="3"/>
<path d="M190.76 166.792C190.668 166.847 190.589 166.876 190.54 166.892L190.486 166.56C190.567 166.633 190.658 166.71 190.76 166.792ZM194.917 171.111C202.121 174.991 217.828 182.235 251.642 195.807C211.781 193.309 177.502 190.502 152.668 188.263C139.293 187.057 128.659 186.015 121.369 185.275C120.354 185.172 119.403 185.075 118.519 184.984L189.065 167.269C189.437 167.679 189.972 168.111 190.673 168.595C191.608 169.24 192.965 170.06 194.917 171.111Z" fill="#FF4667" stroke="black" stroke-width="3"/>
<path d="M265.237 169.218C212.094 170.659 177.727 175.554 156.475 180.185C145.258 182.629 137.699 184.998 132.964 186.745C131.428 187.312 130.19 187.813 129.22 188.23C130.536 188.807 132.262 189.548 134.327 190.396C139.357 192.461 146.392 195.161 154.413 197.702C170.342 202.746 189.905 207.075 205.37 204.755C216.204 192.596 238.362 179.515 265.237 169.218Z" fill="#FF4667" stroke="black" stroke-width="3"/>
<path d="M115.336 257.103C114.52 257.135 113.768 257.031 113.08 256.791C112.408 256.567 111.856 256.255 111.424 255.855C111.008 255.455 110.744 254.991 110.632 254.463C110.52 253.919 110.616 253.367 110.92 252.807C111.336 252.135 112.168 251.935 113.416 252.207C114.36 252.399 115.008 252.503 115.36 252.519C115.728 252.535 116.04 252.487 116.296 252.375C117.464 251.991 118.12 251.575 118.264 251.127C118.36 250.791 118.152 250.399 117.64 249.951C117.432 249.759 117.2 249.567 116.944 249.375C116.688 249.183 116.472 248.991 116.296 248.799C115.496 248.207 114.864 247.527 114.4 246.759C113.952 245.975 113.768 245.127 113.848 244.215C113.928 243.303 114.08 242.551 114.304 241.959C114.528 241.351 114.808 240.815 115.144 240.351C115.736 239.535 116.504 238.871 117.448 238.359C118.536 237.799 119.408 237.439 120.064 237.279C121.36 236.991 122.672 236.967 124 237.207C124.448 237.287 124.832 237.439 125.152 237.663C125.472 237.887 125.792 238.119 126.112 238.359C126.672 238.919 126.808 239.487 126.52 240.063C126.408 240.319 126.232 240.527 125.992 240.687C125.752 240.847 125.496 240.935 125.224 240.951C125.256 241.383 125.176 241.703 124.984 241.911C124.616 242.279 123.976 242.519 123.064 242.631C121.752 242.535 120.864 242.607 120.4 242.847C119.856 243.135 119.656 243.759 119.8 244.719C119.832 244.927 119.96 245.143 120.184 245.367C120.424 245.591 120.696 245.831 121 246.087C121.32 246.343 121.648 246.631 121.984 246.951C122.336 247.271 122.64 247.639 122.896 248.055C123.792 249.527 123.72 251.247 122.68 253.215C121.912 254.687 120.6 255.791 118.744 256.527C117.784 256.911 116.648 257.103 115.336 257.103Z" fill="white"/>
<path d="M93.7777 35.2788C77.1682 22.7536 61.7104 18.2623 44.1594 12.7123C31.1208 8.58913 17.1856 17.4874 17.2546 31.1622C17.2912 38.3994 17.4837 46.7928 17.9574 56.0297C19.5537 87.1559 25.9385 101.522 25.9385 101.522C25.9385 101.522 118.12 53.6353 93.7777 35.2788Z" fill="#FFC14B" stroke="black" stroke-width="3"/>
<path d="M29.8028 36.3442C29.4027 28.984 36.8322 23.7352 43.6358 26.5714L90.4314 46.0793L32.5542 86.9685L29.8028 36.3442Z" fill="white"/>
<path d="M144.989 39.2665C161.598 26.7413 177.056 22.25 194.607 16.6999C207.646 12.5768 221.581 21.4751 221.512 35.1499C221.475 42.387 221.283 50.7805 220.809 60.0173C219.213 91.1435 212.828 105.509 212.828 105.509C212.828 105.509 120.647 57.623 144.989 39.2665Z" fill="#FFC14B" stroke="black" stroke-width="3"/>
<path d="M211.669 36.5033C212.069 29.1431 204.639 23.8944 197.836 26.7306L151.04 46.2382L208.917 87.1274L211.669 36.5033Z" fill="white"/>
<path d="M224.107 129.852C230.145 151.911 230.3 169.218 226.354 182.77C222.416 196.294 214.358 206.208 203.713 213.445C182.319 227.992 150.501 231.71 121.002 231.71C106.251 231.71 90.4943 231.333 75.5877 229.255C60.6711 227.177 46.7101 223.409 35.5024 216.694C24.3346 210.002 15.8866 200.38 11.9235 186.484C7.94693 172.542 8.44337 154.148 15.4961 129.874C23.844 101.143 35.7298 75.4521 52.7676 56.9636C69.7624 38.5218 91.9177 27.2016 121.002 27.2016C150.194 27.2016 171.222 35.8875 187.304 52.9121C203.456 70.0122 214.749 95.6592 224.107 129.852Z" fill="#FFC14B" stroke="black" stroke-width="3"/>
<path d="M81.0642 144.632C53.6206 172.394 25.0636 159.449 12.1404 147.779C6.87261 175.913 8.7178 212.522 59.9468 225.854C97.9015 235.732 169.288 232.823 197.221 216.563C218.761 204.025 231.939 185.204 227.15 147.779C204.829 177.676 167.292 154.233 158.212 144.632C139.572 124.926 110.228 115.131 81.0642 144.632Z" fill="white"/>
<path d="M195.226 217.724C187.523 217.724 113.422 233.005 40.7922 218.885C51.5667 223.531 66.3317 230.887 113.021 231.661C169.314 231.398 190.438 219.66 195.226 217.724Z" fill="#D9D9D9"/>
<ellipse cx="46.379" cy="158.491" rx="16.3612" ry="8.90427" fill="#FF8EA3"/>
<ellipse cx="197.221" cy="158.491" rx="16.3612" ry="8.90427" fill="#FF8EA3"/>
<path d="M101.69 90.3319C97.6772 83.661 91.72 78.1292 84.4449 75.7249C77.1697 73.3206 70.0838 74.967 68.6181 79.4022C67.1523 83.8374 71.8618 89.3819 79.1369 91.7862C86.4121 94.1905 94.0352 93.7405 101.69 90.3319Z" fill="white"/>
<circle cx="75.909" cy="108.306" r="13.1688" fill="black"/>
<circle r="13.1688" transform="matrix(-1 0 0 1 162.336 108.234)" fill="black"/>
<path d="M136.661 90.5706C140.548 83.8253 146.399 78.1822 153.628 75.6413C160.857 73.1003 167.972 74.6129 169.521 79.0197C171.07 83.4265 166.466 89.0587 159.238 91.5997C152.009 94.1406 144.379 93.8344 136.661 90.5706Z" fill="white"/>
<path d="M96.6598 174.15C97.9717 183.237 98.6635 199.689 117.766 199.689C136.133 199.689 140.698 181.993 141.354 175.298C141.354 175.298 124.594 175.298 119.734 167.366C112.622 173.352 108.232 176.145 96.6598 174.15Z" fill="#FF8EA3"/>
<path d="M119.734 167.366C124.594 175.298 141.354 175.298 141.354 175.298C140.698 181.993 136.133 199.689 117.766 199.689C98.6635 199.689 97.9717 183.237 96.6598 174.15C108.232 176.145 112.622 173.352 119.734 167.366ZM119.734 167.366V184.624" stroke="black" stroke-width="2" stroke-linecap="round"/>
<path d="M119.406 158.188C122.598 184.525 81.0966 174.948 77.1061 162.976" stroke="black" stroke-width="3"/>
<path d="M119.581 158.188C116.388 184.525 157.89 174.948 161.88 162.976" stroke="black" stroke-width="3"/>
<path d="M134.171 147.014C130.579 153.798 125.791 158.188 119.007 159.784C111.824 157.789 106.636 153.798 104.242 147.014C107.833 140.629 109.828 140.629 119.007 140.629C126.5 140.629 130.18 140.629 134.171 147.014Z" fill="black"/>
<path d="M343.904 201.352C339.008 201.544 334.496 200.92 330.368 199.48C326.336 198.136 323.024 196.264 320.432 193.864C317.936 191.464 316.352 188.68 315.68 185.512C315.008 182.248 315.584 178.936 317.408 175.576C319.904 171.544 324.896 170.344 332.384 171.976C338.048 173.128 341.936 173.752 344.048 173.848C346.256 173.944 348.128 173.656 349.664 172.984C356.672 170.68 360.608 168.184 361.472 165.496C362.048 163.48 360.8 161.128 357.728 158.44C356.48 157.288 355.088 156.136 353.552 154.984C352.016 153.832 350.72 152.68 349.664 151.528C344.864 147.976 341.072 143.896 338.288 139.288C335.6 134.584 334.496 129.496 334.976 124.024C335.456 118.552 336.368 114.04 337.712 110.488C339.056 106.84 340.736 103.624 342.752 100.84C346.304 95.944 350.912 91.96 356.576 88.888C363.104 85.528 368.336 83.368 372.272 82.408C380.048 80.68 387.92 80.536 395.888 81.976C398.576 82.456 400.88 83.368 402.8 84.712C404.72 86.056 406.64 87.448 408.56 88.888C411.92 92.248 412.736 95.656 411.008 99.112C410.336 100.648 409.28 101.896 407.84 102.856C406.4 103.816 404.864 104.344 403.232 104.44C403.424 107.032 402.944 108.952 401.792 110.2C399.584 112.408 395.744 113.848 390.272 114.52C382.4 113.944 377.072 114.376 374.288 115.816C371.024 117.544 369.824 121.288 370.688 127.048C370.88 128.296 371.648 129.592 372.992 130.936C374.432 132.28 376.064 133.72 377.888 135.256C379.808 136.792 381.776 138.52 383.792 140.44C385.904 142.36 387.728 144.568 389.264 147.064C394.64 155.896 394.208 166.216 387.968 178.024C383.36 186.856 375.488 193.48 364.352 197.896C358.592 200.2 351.776 201.352 343.904 201.352ZM477.501 177.592C477.501 182.68 478.125 187.096 479.373 190.84C479.373 193.912 478.653 196.072 477.213 197.32C475.773 198.664 473.949 199.336 471.741 199.336C469.629 199.432 467.373 199 464.973 198.04C462.573 197.176 460.509 196.072 458.781 194.728C457.149 193.384 456.093 192.328 455.613 191.56C455.133 190.696 454.365 189.448 453.309 187.816C451.677 180.232 450.909 175.288 451.005 172.984C451.101 170.68 451.293 168.712 451.581 167.08C446.781 169.576 443.469 171.736 441.645 173.56C438.285 176.92 435.453 181.24 433.149 186.52C432.381 190.744 431.757 192.952 431.277 193.144C430.797 193.432 430.173 193.624 429.405 193.72C428.637 193.816 427.821 194.152 426.957 194.728C426.093 195.304 425.277 195.784 424.509 196.168C423.741 196.552 422.973 196.936 422.205 197.32C420.381 198.376 419.181 198.904 418.605 198.904C413.133 200.632 407.901 199.864 402.909 196.6C400.797 195.16 399.165 193.336 398.013 191.128C396.861 188.824 396.573 186.376 397.149 183.784C401.277 166.024 406.941 147.928 414.141 129.496C418.557 118.264 422.781 109.384 426.813 102.856C427.773 101.32 428.733 99.688 429.693 97.96C431.709 94.504 433.101 92.152 433.869 90.904C432.909 88.408 432.909 86.248 433.869 84.424C434.925 82.504 436.461 81.016 438.477 79.96C440.589 78.808 442.989 78.04 445.677 77.656C448.365 77.272 450.909 77.224 453.309 77.512C459.069 78.376 462.141 80.632 462.525 84.28C461.949 86.008 461.133 88.072 460.077 90.472C459.117 92.872 458.109 95.32 457.053 97.816C456.093 100.216 455.133 102.472 454.173 104.584C453.309 106.696 452.637 108.28 452.157 109.336C451.773 110.296 451.149 112.024 450.285 114.52C449.517 116.92 448.653 119.56 447.693 122.44C446.829 125.224 446.013 127.816 445.245 130.216L443.517 135.256C443.133 136.6 442.509 138.664 441.645 141.448C440.781 144.136 439.869 147.496 438.909 151.528C440.157 150.568 441.165 149.464 441.933 148.216C442.797 146.872 443.997 145.384 445.533 143.752C447.165 142.12 449.229 140.536 451.725 139C454.317 137.368 457.053 136.312 459.933 135.832C466.173 134.776 471.837 136.792 476.925 141.88C480.765 145.72 481.965 151.48 480.525 159.16C479.949 162.328 479.229 165.544 478.365 168.808C477.597 171.976 477.309 174.904 477.501 177.592ZM503.539 130.648C504.787 127.48 507.763 125.32 512.467 124.168C516.883 123.016 521.011 123.16 524.851 124.6C528.787 126.136 530.563 128.632 530.179 132.088C529.123 135.448 527.779 139.576 526.147 144.472C524.611 149.272 523.123 154.216 521.683 159.304C517.843 172.36 515.635 181.576 515.059 186.952C513.619 195.592 511.219 200.248 507.859 200.92C506.899 201.112 505.987 201.256 505.123 201.352C503.011 201.448 501.667 202.024 501.091 203.08C500.515 204.136 499.555 204.904 498.211 205.384C496.867 205.96 495.379 206.2 493.747 206.104C492.211 206.104 490.627 205.72 488.995 204.952C487.363 204.28 485.971 203.272 484.819 201.928C482.131 198.664 481.603 194.296 483.235 188.824C484.771 178.36 488.659 165.064 494.899 148.936C497.875 140.968 500.755 134.872 503.539 130.648ZM530.755 109.048C526.051 110.008 522.211 109.72 519.235 108.184C516.355 106.648 514.675 104.824 514.195 102.712C513.715 100.504 514.387 98.248 516.211 95.944C518.323 93.064 521.491 91.192 525.715 90.328C527.635 90.136 529.027 90.04 529.891 90.04C530.755 90.04 531.811 90.232 533.059 90.616C536.227 90.904 538.291 92.296 539.251 94.792C540.595 96.904 540.691 99.304 539.539 101.992C538.483 104.68 535.555 107.032 530.755 109.048ZM558.301 193.432L554.701 196.744C552.781 198.088 550.909 198.904 549.085 199.192L549.229 199.336L548.509 199.912C541.693 200.488 536.653 199 533.389 195.448C530.029 191.704 529.309 186.808 531.229 180.76C535.453 156.856 541.357 134.68 548.941 114.232C554.029 100.408 558.925 91.144 563.629 86.44C566.125 84.04 568.429 83.32 570.541 84.28C571.117 81.976 572.125 80.2 573.565 78.952C575.005 77.608 576.589 76.84 578.317 76.648C580.045 76.36 581.725 76.648 583.357 77.512C584.989 78.28 586.237 79.72 587.101 81.832C588.061 83.944 588.445 86.008 588.253 88.024C588.157 89.944 587.725 91.864 586.957 93.784C586.285 95.608 585.421 97.432 584.365 99.256C583.405 101.08 582.493 102.904 581.629 104.728C575.485 119.512 571.117 130.456 568.525 137.56L569.821 136.696C576.157 132.472 582.925 130.6 590.125 131.08C593.293 131.368 596.125 132.232 598.621 133.672C601.213 135.016 603.085 137.08 604.237 139.864C605.485 142.648 605.965 146.248 605.677 150.664C605.485 154.984 604.669 159.496 603.229 164.2C601.789 168.808 599.821 173.32 597.325 177.736C594.925 182.152 592.237 185.992 589.261 189.256C582.541 196.648 576.061 199.432 569.821 197.608C567.133 197.992 564.013 196.744 560.461 193.864C559.693 193.192 558.973 192.664 558.301 192.28V193.432ZM562.189 183.064C563.629 181.432 566.077 178.36 569.533 173.848C573.085 169.336 575.437 165.832 576.589 163.336C577.837 160.744 577.549 158.344 575.725 156.136C573.901 153.832 571.597 155.56 568.813 161.32C564.397 170.536 562.189 177.784 562.189 183.064ZM673.108 131.224L673.684 131.368C673.876 131.368 673.972 131.416 673.972 131.512C676.468 130.552 678.532 131.272 680.164 133.672C681.22 135.304 682.036 137.8 682.612 141.16C682.804 145.768 682.324 152.152 681.172 160.312C678.964 176.824 677.764 186.664 677.572 189.832C677.764 193.192 675.7 195.496 671.38 196.744C667.636 197.896 663.892 197.848 660.148 196.6C656.212 195.256 654.58 193.192 655.252 190.408C654.484 191.848 653.716 192.856 652.948 193.432C652.18 194.104 650.644 194.968 648.34 196.024C646.132 197.176 642.964 198.088 638.836 198.76C634.708 199.528 630.58 199.72 626.452 199.336C622.324 199.048 618.532 198.04 615.076 196.312C611.716 194.68 609.46 192.088 608.308 188.536C606.1 181.624 606.388 172.84 609.172 162.184C611.092 155.176 614.548 148.984 619.54 143.608C625.3 137.464 631.828 132.376 639.124 128.344C644.596 125.368 649.876 123.592 654.964 123.016C656.692 122.824 658.18 122.872 659.428 123.16C660.772 123.448 662.164 123.736 663.604 124.024C665.14 124.312 666.58 124.744 667.924 125.32C671.38 126.76 673.108 128.728 673.108 131.224ZM646.468 169.384C647.14 168.04 647.668 166.36 648.052 164.344C648.532 162.328 649.156 160.12 649.924 157.72C642.148 160.888 636.196 164.776 632.068 169.384C627.556 174.472 627.844 177.976 632.932 179.896C637.348 181.048 640.564 180.328 642.58 177.736C643.444 176.584 644.212 175.144 644.884 173.416C645.556 171.688 646.372 169.912 647.332 168.088C647.044 168.568 646.756 169 646.468 169.384ZM736.487 196.456C732.743 199.528 728.279 201.832 723.095 203.368C718.007 205 712.871 205.864 707.687 205.96C702.503 206.056 697.655 205.432 693.143 204.088C688.631 202.744 685.079 200.632 682.487 197.752C679.415 194.488 678.359 191.224 679.319 187.96C679.799 186.616 680.663 185.56 681.911 184.792C683.063 184.024 684.503 183.832 686.231 184.216C687.383 184.312 688.199 184.024 688.679 183.352C689.255 182.584 689.735 181.768 690.119 180.904C690.503 179.944 690.935 179.08 691.415 178.312C691.895 177.448 692.663 177.016 693.719 177.016C710.615 177.496 719.399 176.008 720.071 172.552C718.919 171.496 717.479 170.584 715.751 169.816C714.119 169.048 712.439 168.28 710.711 167.512C706.487 165.592 703.655 163.48 702.215 161.176C700.391 160.216 698.999 157.912 698.039 154.264C697.559 152.632 697.319 150.952 697.319 149.224C697.319 147.496 697.607 145.912 698.183 144.472C697.895 140.728 700.199 136.6 705.095 132.088C706.439 130.84 708.119 129.496 710.135 128.056C712.151 126.616 715.175 125.224 719.207 123.88C723.239 122.536 727.223 121.576 731.159 121C735.191 120.328 738.791 120.088 741.959 120.28C745.223 120.472 747.527 121.24 748.871 122.584C750.311 123.928 751.415 125.608 752.183 127.624C753.047 129.64 753.335 131.608 753.047 133.528C752.279 137.848 748.727 140.824 742.391 142.456C734.423 143.608 730.583 144.664 730.871 145.624C730.871 145.816 730.535 146.056 729.863 146.344C737.255 151.432 742.391 156.424 745.271 161.32C749.207 168.04 749.783 175.528 746.999 183.784C747.479 186.472 745.079 189.832 739.799 193.864C738.551 194.824 737.447 195.688 736.487 196.456ZM823.155 131.224L823.731 131.368C823.923 131.368 824.019 131.416 824.019 131.512C826.515 130.552 828.579 131.272 830.211 133.672C831.267 135.304 832.083 137.8 832.659 141.16C832.851 145.768 832.371 152.152 831.219 160.312C829.011 176.824 827.811 186.664 827.619 189.832C827.811 193.192 825.747 195.496 821.427 196.744C817.683 197.896 813.939 197.848 810.195 196.6C806.259 195.256 804.627 193.192 805.299 190.408C804.531 191.848 803.763 192.856 802.995 193.432C802.227 194.104 800.691 194.968 798.387 196.024C796.179 197.176 793.011 198.088 788.883 198.76C784.755 199.528 780.627 199.72 776.499 199.336C772.371 199.048 768.579 198.04 765.123 196.312C761.763 194.68 759.507 192.088 758.355 188.536C756.147 181.624 756.435 172.84 759.219 162.184C761.139 155.176 764.595 148.984 769.587 143.608C775.347 137.464 781.875 132.376 789.171 128.344C794.643 125.368 799.923 123.592 805.011 123.016C806.739 122.824 808.227 122.872 809.475 123.16C810.819 123.448 812.211 123.736 813.651 124.024C815.187 124.312 816.627 124.744 817.971 125.32C821.427 126.76 823.155 128.728 823.155 131.224ZM796.515 169.384C797.187 168.04 797.715 166.36 798.099 164.344C798.579 162.328 799.203 160.12 799.971 157.72C792.195 160.888 786.243 164.776 782.115 169.384C777.603 174.472 777.891 177.976 782.979 179.896C787.395 181.048 790.611 180.328 792.627 177.736C793.491 176.584 794.259 175.144 794.931 173.416C795.603 171.688 796.419 169.912 797.379 168.088C797.091 168.568 796.803 169 796.515 169.384ZM854.422 130.36C854.614 128.536 855.766 127.048 857.878 125.896C859.99 124.744 862.342 124.168 864.934 124.168C867.526 124.168 870.022 124.792 872.422 126.04C874.918 127.192 876.598 129.208 877.462 132.088C885.622 124.984 893.062 122.248 899.782 123.88C902.086 124.36 904.054 125.704 905.686 127.912C910.582 123.208 916.006 120.136 921.958 118.696C929.446 118.408 934.822 120.136 938.086 123.88C938.566 124.36 939.046 124.888 939.526 125.464C940.87 126.904 941.638 127.864 941.83 128.344C943.558 131.032 944.038 137.224 943.27 146.92C942.214 159.496 939.814 172.12 936.07 184.792C934.054 191.224 932.23 194.536 930.598 194.728C929.638 194.92 928.726 194.92 927.862 194.728C927.094 194.536 926.374 194.392 925.702 194.296C925.126 194.296 924.79 194.872 924.694 196.024C922.774 198.52 919.846 199.768 915.91 199.768C912.07 199.768 908.806 198.568 906.118 196.168C903.142 193.672 902.086 190.744 902.95 187.384C903.91 183.928 904.966 180.424 906.118 176.872C907.27 173.224 908.518 169.48 909.862 165.64C912.166 158.92 914.71 151.912 917.494 144.616C915.478 146.92 912.742 151.288 909.286 157.72C905.83 164.056 903.67 167.848 902.806 169.096C901.174 172.36 899.83 174.952 898.774 176.872C897.718 178.696 896.278 180.184 894.454 181.336C892.726 182.392 891.094 183.064 889.558 183.352C888.118 183.64 886.726 183.688 885.382 183.496C882.214 183.016 879.958 181.672 878.614 179.464C878.326 178.696 878.038 177.928 877.75 177.16C877.462 176.392 877.222 175.336 877.03 173.992C876.742 171.016 877.126 166.168 878.182 159.448L877.894 159.88C879.046 158.728 879.43 158.44 879.046 159.016C875.206 164.488 872.902 167.992 872.134 169.528C871.366 171.064 870.55 172.792 869.686 174.712C868.822 176.536 867.814 178.696 866.662 181.192C865.51 183.592 864.598 185.752 863.926 187.672C863.254 189.592 862.438 191.464 861.478 193.288C857.158 200.776 849.574 203.8 838.726 202.36C836.422 202.072 834.454 201.496 832.822 200.632C831.19 199.864 830.518 198.664 830.806 197.032C831.574 193.192 833.35 186.808 836.134 177.88C841.606 160.216 844.87 148.84 845.926 143.752C846.598 142.024 847.174 140.248 847.654 138.424C848.23 136.6 848.806 135.016 849.382 133.672C850.534 130.504 852.214 129.4 854.422 130.36ZM904.39 165.928V166.216C904.582 165.832 904.582 165.736 904.39 165.928ZM1010.75 131.224L1011.32 131.368C1011.52 131.368 1011.61 131.416 1011.61 131.512C1014.11 130.552 1016.17 131.272 1017.8 133.672C1018.86 135.304 1019.68 137.8 1020.25 141.16C1020.44 145.768 1019.96 152.152 1018.81 160.312C1016.6 176.824 1015.4 186.664 1015.21 189.832C1015.4 193.192 1013.34 195.496 1009.02 196.744C1005.28 197.896 1001.53 197.848 997.789 196.6C993.853 195.256 992.221 193.192 992.893 190.408C992.125 191.848 991.357 192.856 990.589 193.432C989.821 194.104 988.285 194.968 985.981 196.024C983.773 197.176 980.605 198.088 976.477 198.76C972.349 199.528 968.221 199.72 964.093 199.336C959.965 199.048 956.173 198.04 952.717 196.312C949.357 194.68 947.101 192.088 945.949 188.536C943.741 181.624 944.029 172.84 946.813 162.184C948.733 155.176 952.189 148.984 957.181 143.608C962.941 137.464 969.469 132.376 976.765 128.344C982.237 125.368 987.517 123.592 992.605 123.016C994.333 122.824 995.821 122.872 997.069 123.16C998.413 123.448 999.805 123.736 1001.24 124.024C1002.78 124.312 1004.22 124.744 1005.56 125.32C1009.02 126.76 1010.75 128.728 1010.75 131.224ZM984.109 169.384C984.781 168.04 985.309 166.36 985.693 164.344C986.173 162.328 986.797 160.12 987.565 157.72C979.789 160.888 973.837 164.776 969.709 169.384C965.197 174.472 965.485 177.976 970.573 179.896C974.989 181.048 978.205 180.328 980.221 177.736C981.085 176.584 981.853 175.144 982.525 173.416C983.197 171.688 984.013 169.912 984.973 168.088C984.685 168.568 984.397 169 984.109 169.384Z" fill="black"/>
</svg>
