<svg width="79" height="14" viewBox="0 0 79 14" fill="none" xmlns="http://www.w3.org/2000/svg">
<path d="M0.6 0.359999C1.25333 0.186666 2.40667 0.0999992 4.06 0.0999992C6.34 0.0999992 8.08 0.766666 9.28 2.1C10.3067 3.23333 10.82 4.71333 10.82 6.54C10.82 8.82 10.1667 10.5333 8.86 11.68C7.67333 12.72 6.02 13.24 3.9 13.24C2.56667 13.24 1.46667 13.1533 0.6 12.98V0.359999ZM3.22 11.08C3.48667 11.1467 3.82 11.18 4.22 11.18C6.79333 11.18 8.08 9.66 8.08 6.62C8.08 5.11333 7.65333 3.96 6.8 3.16C6.10667 2.52 5.22667 2.2 4.16 2.2C3.85333 2.2 3.54 2.23333 3.22 2.3V11.08ZM13.2172 13V0.359999C13.4039 0.319999 13.9305 0.266666 14.7972 0.199999C15.6639 0.133332 16.3239 0.0999992 16.7772 0.0999992C20.0039 0.0999992 21.6172 1.42 21.6172 4.06C21.6172 5.48667 21.0372 6.7 19.8772 7.7C20.3572 8.80667 21.1772 10.5733 22.3372 13H19.6972C19.0439 11.5733 18.3372 10.04 17.5772 8.4C17.4305 8.42667 17.2305 8.44 16.9772 8.44C16.3905 8.44 16.0105 8.38667 15.8372 8.28V13H13.2172ZM15.8372 2.34V6.16C16.2372 6.28 16.6705 6.34 17.1372 6.34C18.2839 6.34 18.8572 5.58 18.8572 4.06C18.8572 2.82 18.2639 2.2 17.0772 2.2C16.3972 2.2 15.9839 2.24667 15.8372 2.34ZM28.665 0.0999992C30.6117 0.0999992 32.1117 0.873333 33.165 2.42C33.9917 3.63333 34.405 5.1 34.405 6.82C34.405 8.79333 33.865 10.3733 32.785 11.56C31.7583 12.68 30.385 13.24 28.665 13.24C26.6917 13.24 25.1917 12.52 24.165 11.08C23.3383 9.94667 22.925 8.52667 22.925 6.82C22.925 4.82 23.465 3.18667 24.545 1.92C25.5717 0.706666 26.945 0.0999992 28.665 0.0999992ZM28.665 11.04C29.625 11.04 30.365 10.68 30.885 9.96C31.405 9.22667 31.665 8.18 31.665 6.82C31.665 5.36667 31.3783 4.23333 30.805 3.42C30.2717 2.7 29.5583 2.34 28.665 2.34C27.705 2.34 26.9583 2.73333 26.425 3.52C25.905 4.30667 25.645 5.40667 25.645 6.82C25.645 9.63333 26.6517 11.04 28.665 11.04ZM36.8109 13V0.359999C36.9976 0.319999 37.5243 0.266666 38.3909 0.199999C39.2576 0.133332 39.9176 0.0999992 40.3709 0.0999992C43.5976 0.0999992 45.2109 1.42 45.2109 4.06C45.2109 5.7 44.6509 6.9 43.5309 7.66C42.7843 8.18 41.9043 8.44 40.8909 8.44C40.0909 8.44 39.6043 8.38667 39.4309 8.28V13H36.8109ZM39.4309 2.34V6.16C39.7776 6.29333 40.2109 6.36 40.7309 6.36C41.2643 6.36 41.6843 6.17333 41.9909 5.8C42.2976 5.41333 42.4509 4.88667 42.4509 4.22C42.4509 2.87333 41.8576 2.2 40.6709 2.2C39.9909 2.2 39.5776 2.24667 39.4309 2.34ZM47.6117 13V0.359999C47.7984 0.319999 48.3251 0.266666 49.1917 0.199999C50.0584 0.133332 50.7184 0.0999992 51.1717 0.0999992C54.3984 0.0999992 56.0117 1.42 56.0117 4.06C56.0117 5.7 55.4517 6.9 54.3317 7.66C53.5851 8.18 52.7051 8.44 51.6917 8.44C50.8917 8.44 50.4051 8.38667 50.2317 8.28V13H47.6117ZM50.2317 2.34V6.16C50.5784 6.29333 51.0117 6.36 51.5317 6.36C52.0651 6.36 52.4851 6.17333 52.7917 5.8C53.0984 5.41333 53.2517 4.88667 53.2517 4.22C53.2517 2.87333 52.6584 2.2 51.4717 2.2C50.7917 2.2 50.3784 2.24667 50.2317 2.34ZM58.0925 0.34H66.3725V2.44H60.7125V5.42H65.4325V7.52H60.7125V10.9H66.6325V13H58.0925V0.34ZM68.5297 0.359999C69.183 0.186666 70.3364 0.0999992 71.9897 0.0999992C74.2697 0.0999992 76.0097 0.766666 77.2097 2.1C78.2364 3.23333 78.7497 4.71333 78.7497 6.54C78.7497 8.82 78.0964 10.5333 76.7897 11.68C75.603 12.72 73.9497 13.24 71.8297 13.24C70.4964 13.24 69.3964 13.1533 68.5297 12.98V0.359999ZM71.1497 11.08C71.4164 11.1467 71.7497 11.18 72.1497 11.18C74.723 11.18 76.0097 9.66 76.0097 6.62C76.0097 5.11333 75.583 3.96 74.7297 3.16C74.0364 2.52 73.1564 2.2 72.0897 2.2C71.783 2.2 71.4697 2.23333 71.1497 2.3V11.08Z" fill="#7E75A3"/>
</svg>
