<svg width="22" height="18" viewBox="0 0 22 18" fill="none" xmlns="http://www.w3.org/2000/svg">
<path fill-rule="evenodd" clip-rule="evenodd" d="M20 2C21.105 2 22 2.89543 22 4V16C22 17.1046 21.105 18 20 18H2C0.895 18 0 17.1046 0 16V2C0 0.89543 0.895 0 2 0H8C9.12 0 9.83301 0.47545 10.549 1.37885C10.569 1.40385 10.617 1.46608 10.671 1.535V1.53515C10.746 1.63236 10.832 1.74283 10.862 1.78082C10.893 1.81925 10.92 1.85103 10.941 1.8773V1.87732C11.029 1.98428 11.042 1.99978 11.002 2H20ZM20 6V4L10.995 3.99999C10.276 3.99614 9.809 3.65991 9.306 3.03654C9.26 2.98006 9.15 2.83737 9.069 2.73376V2.73375V2.73357C9.027 2.67944 8.99299 2.636 8.98199 2.62116C8.60699 2.14857 8.384 2 8 2H2V6H20ZM20 8H2V16H20V8Z" fill="#A9A3C2"/>
</svg>
