<svg width="40" height="40" viewBox="0 0 40 40" fill="none" xmlns="http://www.w3.org/2000/svg">
<circle cx="20" cy="20" r="20" fill="#FF4667"/>
<path fill-rule="evenodd" clip-rule="evenodd" d="M13 22C11.8954 22 11 21.1046 11 20C11 18.8954 11.8954 18 13 18C14.1046 18 15 18.8954 15 20C15 21.1046 14.1046 22 13 22ZM20 22C18.8954 22 18 21.1046 18 20C18 18.8954 18.8954 18 20 18C21.1046 18 22 18.8954 22 20C22 21.1046 21.1046 22 20 22ZM25 20C25 21.1046 25.8954 22 27 22C28.1046 22 29 21.1046 29 20C29 18.8954 28.1046 18 27 18C25.8954 18 25 18.8954 25 20Z" fill="white"/>
</svg>
