<svg width="22" height="21" viewBox="0 0 22 21" fill="none" xmlns="http://www.w3.org/2000/svg">
<path fill-rule="evenodd" clip-rule="evenodd" d="M3.5 0L4.914 1.41394L1.414 4.91394L0 3.5L3.5 0ZM21.414 3.5L17.914 0L16.5 1.41394L20 4.91394L21.414 3.5ZM10.707 20.707C5.184 20.707 0.707001 16.23 0.707001 10.707C0.707001 5.18397 5.184 0.70697 10.707 0.70697C16.23 0.70697 20.707 5.18397 20.707 10.707C20.707 16.23 16.23 20.707 10.707 20.707ZM10.707 18.707C15.125 18.707 18.707 15.125 18.707 10.707C18.707 6.28897 15.125 2.70697 10.707 2.70697C6.289 2.70697 2.707 6.28897 2.707 10.707C2.707 15.125 6.289 18.707 10.707 18.707ZM7.707 6.70697V8.70697H10.838L6.838 14.707H13.707V12.707H10.575L14.575 6.70697H7.707Z" fill="#7E75A3"/>
</svg>
