<svg width="81" height="14" viewBox="0 0 81 14" fill="none" xmlns="http://www.w3.org/2000/svg">
<path d="M6.54 0.0999992C8.48667 0.0999992 9.98667 0.873333 11.04 2.42C11.8667 3.63333 12.28 5.1 12.28 6.82C12.28 8.79333 11.74 10.3733 10.66 11.56C9.63333 12.68 8.26 13.24 6.54 13.24C4.56667 13.24 3.06667 12.52 2.04 11.08C1.21333 9.94667 0.8 8.52667 0.8 6.82C0.8 4.82 1.34 3.18667 2.42 1.92C3.44667 0.706666 4.82 0.0999992 6.54 0.0999992ZM6.54 11.04C7.5 11.04 8.24 10.68 8.76 9.96C9.28 9.22667 9.54 8.18 9.54 6.82C9.54 5.36667 9.25333 4.23333 8.68 3.42C8.14667 2.7 7.43333 2.34 6.54 2.34C5.58 2.34 4.83333 2.73333 4.3 3.52C3.78 4.30667 3.52 5.40667 3.52 6.82C3.52 9.63333 4.52667 11.04 6.54 11.04ZM17.2659 4.52V13H14.6859V0.34H16.8659C18.9993 3.11333 21.1193 6.02667 23.2259 9.08V0.34H25.8459V13H23.6059C22.3526 11.52 20.2393 8.69333 17.2659 4.52ZM36.4261 13H33.8461V0.34H36.4261V5.42H41.8661V0.34H44.4861V13H41.8661V7.52H36.4261V13ZM52.6338 0.0999992C54.5804 0.0999992 56.0804 0.873333 57.1338 2.42C57.9604 3.63333 58.3738 5.1 58.3738 6.82C58.3738 8.79333 57.8338 10.3733 56.7538 11.56C55.7271 12.68 54.3538 13.24 52.6338 13.24C50.6604 13.24 49.1604 12.52 48.1338 11.08C47.3071 9.94667 46.8938 8.52667 46.8938 6.82C46.8938 4.82 47.4338 3.18667 48.5138 1.92C49.5404 0.706666 50.9138 0.0999992 52.6338 0.0999992ZM52.6338 11.04C53.5938 11.04 54.3338 10.68 54.8538 9.96C55.3738 9.22667 55.6338 8.18 55.6338 6.82C55.6338 5.36667 55.3471 4.23333 54.7738 3.42C54.2404 2.7 53.5271 2.34 52.6338 2.34C51.6738 2.34 50.9271 2.73333 50.3938 3.52C49.8738 4.30667 49.6138 5.40667 49.6138 6.82C49.6138 9.63333 50.6204 11.04 52.6338 11.04ZM60.7797 13V0.34H63.3997V10.9H68.1397V13H60.7797ZM70.0375 0.359999C70.6908 0.186666 71.8442 0.0999992 73.4975 0.0999992C75.7775 0.0999992 77.5175 0.766666 78.7175 2.1C79.7442 3.23333 80.2575 4.71333 80.2575 6.54C80.2575 8.82 79.6042 10.5333 78.2975 11.68C77.1108 12.72 75.4575 13.24 73.3375 13.24C72.0042 13.24 70.9042 13.1533 70.0375 12.98V0.359999ZM72.6575 11.08C72.9242 11.1467 73.2575 11.18 73.6575 11.18C76.2308 11.18 77.5175 9.66 77.5175 6.62C77.5175 5.11333 77.0908 3.96 76.2375 3.16C75.5442 2.52 74.6642 2.2 73.5975 2.2C73.2908 2.2 72.9775 2.23333 72.6575 2.3V11.08Z" fill="#7E75A3"/>
</svg>
