<svg width="21" height="20" viewBox="0 0 21 20" fill="none" xmlns="http://www.w3.org/2000/svg">
<path fill-rule="evenodd" clip-rule="evenodd" d="M8.92125 16C4.46818 16 0.858261 12.4183 0.858261 8C0.858261 3.58172 4.46818 0 8.92125 0C13.3743 0 16.9842 3.58172 16.9842 8C16.9842 9.8487 16.3522 11.551 15.2909 12.9056L20.7205 18.2929L19.2952 19.7071L13.8655 14.3199C12.5002 15.3729 10.7845 16 8.92125 16ZM14.9685 8C14.9685 11.3137 12.261 14 8.92125 14C5.58145 14 2.87401 11.3137 2.87401 8C2.87401 4.68629 5.58145 2 8.92125 2C12.261 2 14.9685 4.68629 14.9685 8Z" fill="#A9A3C2"/>
</svg>
