<svg width="23" height="22" viewBox="0 0 23 22" fill="none" xmlns="http://www.w3.org/2000/svg">
<path fill-rule="evenodd" clip-rule="evenodd" d="M17.7952 19.897L20.0298 17.6798L19.2428 14.843L19.5857 14.0305L22.1732 12.5818V9.4464L19.5931 7.99173L19.2559 7.18067L20.0528 4.34235L17.8166 2.12683L14.9572 2.90748L14.1401 2.56758L12.6799 0H9.51977L8.05364 2.56004L7.23638 2.89446L4.37617 2.10281L2.14345 4.31809L2.93037 7.15567L2.5878 7.96634L0 9.4151V12.5496L2.57788 14.0076L2.9153 14.8193L2.11852 17.6572L4.35209 19.8733L7.21201 19.0925L8.02917 19.4325L9.48944 21.999H12.6486L14.117 19.4412L14.935 19.1065L17.7952 19.897ZM17.9933 12.6256L17.1146 14.7078L17.7751 17.0886L17.2022 17.657L14.8077 16.9951L12.7083 17.8542L11.477 19.999H10.6662L9.44519 17.8529L7.34896 16.9808L4.94813 17.6362L4.37622 17.0688L5.04325 14.693L4.17746 12.6101L2.01575 11.3876V10.583L4.17975 9.3715L5.05872 7.29155L4.39811 4.90947L4.96883 4.34321L7.36329 5.00595L9.46343 4.14655L10.6928 2H11.5028L12.7239 4.1471L14.8202 5.0192L17.2215 4.36362L17.7948 4.93166L17.1279 7.30696L17.994 9.3906L20.1575 10.6103V11.4139L17.9933 12.6256ZM11.0866 15C8.86008 15 7.05512 13.2091 7.05512 11C7.05512 8.79086 8.86008 7 11.0866 7C13.3131 7 15.1181 8.79086 15.1181 11C15.1181 13.2091 13.3131 15 11.0866 15ZM13.1024 11C13.1024 12.1046 12.1999 13 11.0866 13C9.97332 13 9.07087 12.1046 9.07087 11C9.07087 9.8954 9.97332 9 11.0866 9C12.1999 9 13.1024 9.8954 13.1024 11Z" fill="#A9A3C2"/>
</svg>
